# xmcd
#
# Track frame offsets: 
#        150
#        12625
#        25870
#        39735
#        52127
#        65930
#        84635
#        97167
#        109425
#        123175
#        144812
#        159110
#        170697
#        182145
#        200357
#        213590
#        238037
#        249257
#
# Disc length: 3482 seconds
#
# Revision: 1
# Processed by: cddbd v1.4PL0 Copyright (c) Steve Scherf et al.
# Submitted via: ExactAudioCopy v0.95a2
#
DISCID=070d9812
DTITLE=Bobby Bare - Famous Country Music Makers
DYEAR=1900
DGENRE=Country
TTITLE0=500 Miles Away From Home
TTITLE1=Detroit City
TTITLE2=Ride Me Down Easy
TTITLE3=Green, Green Grass Of Home
TTITLE4=Marie Laveau
TTITLE5=Tequila Sheila
TTITLE6=Four Strong Winds
TTITLE7=Streets Of Baltimore
TTITLE8=Miller's Cave
TTITLE9=Numbers
TTITLE10=All American Boy
TTITLE11=Shame On Me
TTITLE12=Daddy What If
TTITLE13=The Jogger
TTITLE14=The Mermaid Song
TTITLE15=The Winner
TTITLE16=Please Don't Tell Me How The Story Ends
TTITLE17=Come Sundown (She'll Be Gone)
EXTD=
EXTT0=
EXTT1=
EXTT2=
EXTT3=
EXTT4=
EXTT5=
EXTT6=
EXTT7=
EXTT8=
EXTT9=
EXTT10=
EXTT11=
EXTT12=
EXTT13=
EXTT14=
EXTT15=
EXTT16=
EXTT17=
PLAYORDER=
